<svg xmlns="http://www.w3.org/2000/svg" width="60" height="60" id="brain"><g fill="#0A0B09" fill-rule="evenodd"><path d="M31.389 41.293a.999.999 0 0 0-1.414 0l-3 3A.998.998 0 0 0 27.682 46h6a1 1 0 1 0 .707-1.707l-3-3zM30.096 44l.586-.586.586.586h-1.172z"></path><path d="M52.191 22.038c1.072-1.491 1.455-3.398.952-5.348-.569-2.202-2.077-3.847-3.955-4.445.672-1.81.335-3.68-.985-5.115-1.624-1.766-4.178-2.346-6.585-1.609C41.123 2.237 38.336.263 35.59.023c-1.829-.154-3.759.469-4.908 2.093C29.532.491 27.6-.131 25.773.023c-2.746.24-5.533 2.214-6.028 5.498-2.406-.737-4.96-.157-6.584 1.609-1.321 1.435-1.658 3.305-.986 5.115-1.878.598-3.386 2.243-3.954 4.445-.529 2.049-.083 4.051 1.118 5.572A.985.985 0 0 0 9 23v20c0 3.974 2.272 6.562 6 6.949V54c0 3.421 2.442 6 5.682 6h20C44.106 60 47 57.252 47 54v-4.052c3.126-.325 6-2.201 6-5.948V23a.987.987 0 0 0-.809-.962zM35.416 2.015c2.209.193 4.456 1.984 4.268 4.922a1 1 0 0 0 1.481.938c2.281-1.261 4.484-.567 5.566.608 1.017 1.106 1.06 2.55.119 3.962A1 1 0 0 0 47.664 14c1.887.034 3.139 1.626 3.542 3.19.396 1.535.098 3.572-1.833 4.81H32V5a.966.966 0 0 0-.19-.554c.51-1.956 2.141-2.556 3.606-2.431zM10.157 17.19c.403-1.564 1.655-3.156 3.543-3.19a1 1 0 0 0 .814-1.555c-.942-1.412-.899-2.856.118-3.962 1.083-1.175 3.287-1.869 5.566-.608a1 1 0 0 0 1.482-.938c-.188-2.938 2.058-4.729 4.267-4.922 1.633-.136 3.463.595 3.741 3.095a.993.993 0 0 0 .312.616V22H11.99c-1.931-1.238-2.229-3.275-1.833-4.81zM51 44c0 2.952-2.693 4-5 4a1 1 0 0 0-1 1v5c0 2.131-2.018 4-4.318 4H40v-7a1 1 0 1 0-2 0v7h-6v-7a1 1 0 1 0-2 0v7h-6v-7a1 1 0 1 0-2 0v7h-1.318C18.548 58 17 56.317 17 54v-5a1 1 0 0 0-1-1c-3.178 0-5-1.822-5-5V24h40v20z"></path><path d="M19.682 28c-3.86 0-7 3.141-7 7s3.14 7 7 7 7-3.141 7-7-3.14-7-7-7zm0 12c-2.757 0-5-2.243-5-5s2.243-5 5-5 5 2.243 5 5-2.243 5-5 5zM41.682 28c-3.86 0-7 3.141-7 7s3.14 7 7 7c3.859 0 7-3.141 7-7s-3.141-7-7-7zm0 12c-2.757 0-5-2.243-5-5s2.243-5 5-5c2.756 0 5 2.243 5 5s-2.244 5-5 5z"></path></g></svg>